<?xml version="1.0" encoding="UTF-8"?>
<svg xmlns="http://www.w3.org/2000/svg" version="1.1" width="260" height="142" style="background: transparent;">
<path d="M0 0 C0.79859436 -0.00978378 1.59718872 -0.01956757 2.41998291 -0.02964783 C5.07009205 -0.05962719 7.72015052 -0.08099681 10.37036133 -0.09985352 C11.72805854 -0.10971126 11.72805854 -0.10971126 13.11318398 -0.11976814 C17.90633201 -0.15237643 22.69945771 -0.176821 27.49267578 -0.19628906 C31.45719847 -0.21408869 35.42100807 -0.24888474 39.38525391 -0.29882812 C44.17277646 -0.35907471 48.95963876 -0.38977131 53.74752235 -0.39946175 C55.5699767 -0.40801198 57.39241363 -0.42681957 59.21465111 -0.45620537 C61.77148219 -0.49520955 64.32575347 -0.49614368 66.8828125 -0.48828125 C67.63061478 -0.50828186 68.37841705 -0.52828247 69.14888 -0.54888916 C74.36926534 -0.47712424 77.00226486 1.04906117 80.77617359 4.62090969 C83.08317346 7.08149822 85.08491623 9.60498978 87.07739258 12.33374023 C87.82633789 13.34694336 88.5752832 14.36014648 89.34692383 15.40405273 C90.87651918 17.64081335 92.15235674 19.74821123 93.26489258 22.20874023 C89.57598359 23.43837656 86.12790052 23.76544424 82.26489258 24.20874023 C84.01346558 24.18517456 84.01346558 24.18517456 85.79736328 24.16113281 C90.11907044 24.1068649 94.44074743 24.07240165 98.76269531 24.04394531 C100.63384057 24.0288515 102.50495041 24.00837434 104.37597656 23.98242188 C107.06429784 23.94606431 109.75215171 23.92902008 112.44067383 23.91577148 C113.69706413 23.8925457 113.69706413 23.8925457 114.97883606 23.86885071 C120.83798209 23.86714987 120.83798209 23.86714987 123.00993347 25.60502625 C124.26489258 27.20874023 124.26489258 27.20874023 124.26489258 29.20874023 C124.92489258 29.20874023 125.58489258 29.20874023 126.26489258 29.20874023 C127.9927239 31.21387782 129.6052779 33.22769755 131.20239258 35.33374023 C132.19047723 36.61514185 133.17876455 37.89638722 134.16723633 39.17749023 C134.67625488 39.84135742 135.18527344 40.50522461 135.7097168 41.18920898 C138.20149988 44.42500643 140.73484254 47.62784025 143.26489258 50.83374023 C144.93654228 52.95496128 146.60250835 55.08021448 148.26489258 57.20874023 C148.86301758 57.95897461 149.46114258 58.70920898 150.07739258 59.48217773 C151.26489258 61.20874023 151.26489258 61.20874023 151.26489258 63.20874023 C152.25489258 63.53874023 153.24489258 63.86874023 154.26489258 64.20874023 C155.45239258 66.77124023 155.45239258 66.77124023 156.26489258 69.20874023 C156.92489258 69.20874023 157.58489258 69.20874023 158.26489258 69.20874023 C159.63756077 71.18195077 160.96916875 73.18417175 162.26489258 75.20874023 C164.68619589 77.63004354 166.06600635 77.73714527 169.38989258 78.33374023 C170.2999707 78.50131836 171.21004883 78.66889648 172.14770508 78.84155273 C173.19571289 79.02331055 173.19571289 79.02331055 174.26489258 79.20874023 C174.26489258 80.85874023 174.26489258 82.50874023 174.26489258 84.20874023 C167.13126648 83.73252006 160.01107739 83.2038342 152.89379883 82.52514648 C81.37270116 75.75256926 8.29017891 75.76268684 -63.23120117 82.52514648 C-70.72523794 83.23320578 -78.22243064 83.74653519 -85.73510742 84.20874023 C-85.40510742 82.55874023 -85.07510742 80.90874023 -84.73510742 79.20874023 C-83.77991211 79.14299805 -82.8247168 79.07725586 -81.84057617 79.00952148 C-73.67484603 77.99185821 -68.84384891 76.52383149 -63.61010742 69.95874023 C-62.35777976 68.3374508 -61.15401478 66.70695873 -60.00497437 65.01086426 C-58.73510742 63.20874023 -58.73510742 63.20874023 -57.43504333 61.67497253 C-53.46263789 56.82866486 -52.99926882 52.91967048 -53.02807617 46.77514648 C-53.01295486 45.89720932 -52.99783356 45.01927216 -52.98225403 44.11473083 C-52.93954909 41.33330252 -52.93055589 38.55296302 -52.92260742 35.77124023 C-52.89944967 33.87602934 -52.87408168 31.98084409 -52.84643555 30.08569336 C-52.78375339 25.45994679 -52.75128382 20.83487371 -52.73510742 16.20874023 C-53.39510742 16.20874023 -54.05510742 16.20874023 -54.73510742 16.20874023 C-54.73510742 14.22874023 -54.73510742 12.24874023 -54.73510742 10.20874023 C-47.14510742 10.20874023 -39.55510742 10.20874023 -31.73510742 10.20874023 C-30.73510742 13.20874023 -30.73510742 13.20874023 -31.73510742 16.20874023 C-31.80447804 18.43692465 -31.81967826 20.66708548 -31.79760742 22.89624023 C-31.78858398 24.07573242 -31.77956055 25.25522461 -31.77026367 26.47045898 C-31.75866211 27.3740918 -31.74706055 28.27772461 -31.73510742 29.20874023 C-24.77448195 20.7311933 -17.88446663 12.24950812 -11.44213867 3.36889648 C-8.28047676 -0.63201664 -4.73896973 0.0364587 0 0 Z M-6.73510742 9.20874023 C-8.27921545 10.85860908 -9.74403323 12.58287971 -11.17260742 14.33374023 C-11.61435303 14.87289063 -12.05609863 15.41204102 -12.51123047 15.9675293 C-16.207667 20.50078444 -19.81836618 25.1017173 -23.41650391 29.71313477 C-26.96748596 34.25755001 -30.58804734 38.74118573 -34.23510742 43.20874023 C-40.16036428 50.47176036 -45.96851861 57.81943883 -51.73510742 65.20874023 C-52.47374023 66.14459961 -53.21237305 67.08045898 -53.97338867 68.04467773 C-54.61663086 68.86194336 -55.25987305 69.67920898 -55.92260742 70.52124023 C-56.47303711 71.21862305 -57.0234668 71.91600586 -57.59057617 72.63452148 C-58.83311615 74.01915931 -58.83311615 74.01915931 -58.73510742 75.20874023 C-46.52148717 74.63716687 -34.33040788 73.85619833 -22.13647461 72.95727539 C-18.66970687 72.7024985 -15.20256344 72.45396915 -11.73510742 72.20874023 C-10.51291504 72.12116455 -9.29072266 72.03358887 -8.03149414 71.94335938 C2.89533933 71.20532008 13.81724695 70.89518892 24.76489258 70.64624023 C26.5708889 70.60290022 28.37687856 70.55928194 30.18286133 70.51538086 C34.54346865 70.4099721 38.9041476 70.30828454 43.26489258 70.20874023 C39.33283183 64.88708834 35.27627732 59.69673778 31.07739258 54.58374023 C26.86816826 49.4290835 22.6871658 44.25562238 18.57739258 39.02124023 C18.13572754 38.45953125 17.6940625 37.89782227 17.23901367 37.3190918 C14.93938432 34.38335871 12.66955564 31.42808133 10.42895508 28.44702148 C9.74192505 27.53762817 9.74192505 27.53762817 9.04101562 26.60986328 C8.16701675 25.45021677 7.29842384 24.28647046 6.43603516 23.11816406 C5.42560572 21.77855255 4.35075246 20.48797242 3.26489258 19.20874023 C2.60489258 19.20874023 1.94489258 19.20874023 1.26489258 19.20874023 C1.01739258 18.48686523 0.76989258 17.76499023 0.51489258 17.02124023 C-0.85780334 13.93267442 -2.45864038 11.69862606 -4.73510742 9.20874023 C-5.39510742 9.20874023 -6.05510742 9.20874023 -6.73510742 9.20874023 Z M117.26489258 32.20874023 C116.30771135 33.25526347 115.39108177 34.33890928 114.49145508 35.43530273 C113.91886963 36.13115479 113.34628418 36.82700684 112.75634766 37.54394531 C112.14041748 38.29957764 111.5244873 39.05520996 110.88989258 39.83374023 C110.26300537 40.59904053 109.63611816 41.36434082 108.99023438 42.15283203 C103.31961082 49.09670228 97.747362 56.11549218 92.26489258 63.20874023 C91.67063477 63.95510742 91.07637695 64.70147461 90.46411133 65.47045898 C89.07560504 67.13114612 89.07560504 67.13114612 89.26489258 69.20874023 C88.60489258 69.20874023 87.94489258 69.20874023 87.26489258 69.20874023 C87.26489258 69.86874023 87.26489258 70.52874023 87.26489258 71.20874023 C88.51810303 71.28914551 89.77131348 71.36955078 91.0625 71.45239258 C95.82101367 71.75856593 100.57924076 72.06902213 105.33740234 72.38061523 C107.37639184 72.51357544 109.41545225 72.64545374 111.45458984 72.77612305 C125.4199612 73.67200179 139.34179978 74.79896714 153.26489258 76.20874023 C152.32912055 74.95372432 151.39230944 73.69948315 150.45507812 72.44555664 C149.67272041 71.39774521 149.67272041 71.39774521 148.8745575 70.32876587 C146.35719005 67.01324134 143.71920575 63.80031753 141.07739258 60.58374023 C136.30220278 54.74143046 131.59030421 48.85599198 126.95556641 42.90161133 C124.12684505 39.27436723 121.27372893 35.68770727 118.26489258 32.20874023 C117.93489258 32.20874023 117.60489258 32.20874023 117.26489258 32.20874023 Z " fill="#FDFEFD" transform="translate(85.735107421875,3.791259765625)"/>
<path d="M0 0 C2.75 0.5625 2.75 0.5625 4.19140625 2.34765625 C5.45356898 4.38653451 6.6362511 6.43926805 7.75 8.5625 C9.52706209 5.89690687 10.62548273 3.5344385 11.75 0.5625 C14.125 0.375 14.125 0.375 16.75 0.5625 C19.69875682 4.98563523 19.29290126 9.2857881 19.5 14.5 C19.55542969 15.50224609 19.61085937 16.50449219 19.66796875 17.53710938 C19.71050781 18.50326172 19.75304687 19.46941406 19.796875 20.46484375 C19.83651367 21.34648193 19.87615234 22.22812012 19.91699219 23.13647461 C19.73673942 25.75514678 19.07826463 27.32259832 17.75 29.5625 C15.77 29.5625 13.79 29.5625 11.75 29.5625 C11.42 24.9425 11.09 20.3225 10.75 15.5625 C9.43 15.2325 8.11 14.9025 6.75 14.5625 C6.09 13.9025 5.43 13.2425 4.75 12.5625 C4.71261719 13.24957031 4.67523438 13.93664062 4.63671875 14.64453125 C4.57097656 15.54558594 4.50523437 16.44664063 4.4375 17.375 C4.37949219 18.26832031 4.32148438 19.16164062 4.26171875 20.08203125 C3.68686419 22.86854 2.9293144 23.80385754 0.75 25.5625 C-0.24 25.2325 -1.23 24.9025 -2.25 24.5625 C-2.4458691 20.75038097 -2.63029565 16.93779466 -2.8125 13.125 C-2.86857422 12.03638672 -2.92464844 10.94777344 -2.98242188 9.82617188 C-3.03076172 8.79169922 -3.07910156 7.75722656 -3.12890625 6.69140625 C-3.1760376 5.73306885 -3.22316895 4.77473145 -3.27172852 3.78735352 C-3.24192492 0.73566608 -2.93526945 0.73381736 0 0 Z " fill="#F9FDFB" transform="translate(185.25,109.4375)"/>
<path d="M0 0 C1.98 0 3.96 0 6 0 C6.33 3.96 6.66 7.92 7 12 C8.32 11.34 9.64 10.68 11 10 C11.69632215 8.04634555 11.69632215 8.04634555 11.75 5.875 C11.8325 4.59625 11.915 3.3175 12 2 C13.65 1.67 15.3 1.34 17 1 C18.56380504 4.12761008 18.14320695 7.44602516 18.125 10.875 C18.13080078 11.95587891 18.13080078 11.95587891 18.13671875 13.05859375 C18.13036598 16.50815011 18.08702974 19.70440191 17 23 C15.35 23.33 13.7 23.66 12 24 C11.86979167 21.98177083 11.73958333 19.96354167 11.609375 17.9453125 C11.16977388 15.79577869 11.16977388 15.79577869 8.953125 14.7421875 C8.30859375 14.49726562 7.6640625 14.25234375 7 14 C6.93941406 14.98742187 6.87882813 15.97484375 6.81640625 16.9921875 C6.73261719 18.27351563 6.64882812 19.55484375 6.5625 20.875 C6.48128906 22.15117187 6.40007812 23.42734375 6.31640625 24.7421875 C6 28 6 28 5 30 C3.35 30 1.7 30 0 30 C0 20.1 0 10.2 0 0 Z " fill="#F8FEFB" transform="translate(138,107)"/>
<path d="M0 0 C1.98 0.66 3.96 1.32 6 2 C6.06058594 2.99902344 6.12117188 3.99804688 6.18359375 5.02734375 C6.26738281 6.31769531 6.35117188 7.60804687 6.4375 8.9375 C6.51871094 10.22527344 6.59992188 11.51304688 6.68359375 12.83984375 C6.64919188 15.86023957 6.64919188 15.86023957 8 17 C8.19335938 16.41992188 8.38671875 15.83984375 8.5859375 15.2421875 C10.05729167 10.828125 11.52864583 6.4140625 13 2 C14.65 2.33 16.3 2.66 18 3 C18.0582253 6.08325358 18.09367134 9.16636505 18.125 12.25 C18.14175781 13.12269531 18.15851563 13.99539062 18.17578125 14.89453125 C18.18222656 15.73886719 18.18867187 16.58320312 18.1953125 17.453125 C18.20578613 18.22817383 18.21625977 19.00322266 18.22705078 19.80175781 C17.97326556 22.25883539 17.22444152 23.87311542 16 26 C14.68 26 13.36 26 12 26 C11.34 24.68 10.68 23.36 10 22 C9.1646875 23.0209375 9.1646875 23.0209375 8.3125 24.0625 C6 26 6 26 3.3125 25.875 C1 25 1 25 0 23 C-0.36456275 19.32338872 -0.46765346 15.62820202 -0.625 11.9375 C-0.6765625 10.90560547 -0.728125 9.87371094 -0.78125 8.81054688 C-0.82507813 7.83021484 -0.86890625 6.84988281 -0.9140625 5.83984375 C-0.9548291 4.93613037 -0.9955957 4.03241699 -1.03759766 3.10131836 C-1 1 -1 1 0 0 Z " fill="#F9FDFB" transform="translate(93,109)"/>
<path d="M0 0 C3.75383562 0.53626223 7.30720478 2.30720478 10 5 C10.1613058 8.06481021 9.98150241 10.05549278 9 13 C10.3765052 15.61137643 12.00780802 17.97974133 13.65234375 20.4296875 C15.12130128 23.23135143 15.27338598 24.8867474 15 28 C11.80800833 25.58443874 9.25283313 23.31996462 7 20 C5.19533017 21.80466983 5.58507442 24.73102816 5.37890625 27.1875 C5.25386719 27.785625 5.12882812 28.38375 5 29 C4.34 29.33 3.68 29.66 3 30 C2.01 29.34 1.02 28.68 0 28 C-1.15444047 22.04866035 -1.15301589 16.10926332 -1.125 10.0625 C-1.12886719 9.20076172 -1.13273437 8.33902344 -1.13671875 7.45117188 C-1.12675118 1.12675118 -1.12675118 1.12675118 0 0 Z M5 5 C5.66 6.32 6.32 7.64 7 9 C7 7.68 7 6.36 7 5 C6.34 5 5.68 5 5 5 Z " fill="#F8FEFB" transform="translate(117,109)"/>
<path d="M0 0 C-0.33 0.66 -0.66 1.32 -1 2 C-2.98 2 -4.96 2 -7 2 C-6.855625 3.134375 -6.71125 4.26875 -6.5625 5.4375 C-6.37474666 6.95830208 -6.18726097 8.47913722 -6 10 C-5.90460938 10.74378906 -5.80921875 11.48757812 -5.7109375 12.25390625 C-4.16091857 24.98620458 -4.16091857 24.98620458 -6.25 30 C-6.8275 30.66 -7.405 31.32 -8 32 C-9.32 32 -10.64 32 -12 32 C-13.01085428 28.65613602 -13.11543463 25.6251882 -13.09765625 22.140625 C-13.09282227 20.46806641 -13.09282227 20.46806641 -13.08789062 18.76171875 C-13.07951172 17.60285156 -13.07113281 16.44398437 -13.0625 15.25 C-13.05798828 14.07566406 -13.05347656 12.90132812 -13.04882812 11.69140625 C-13.03705094 8.79421928 -13.02060326 5.89713546 -13 3 C-15.31 3 -17.62 3 -20 3 C-19 1 -19 1 -17.03125 0.33203125 C-10.98661347 -0.90861174 -6.0950285 -0.98306911 0 0 Z " fill="#F8FEFB" transform="translate(89,106)"/>
<path d="M0 0 C2.69082872 0.17635452 5.32851446 0.61835921 8 1 C6.02 1.99 6.02 1.99 4 3 C4.33 4.32 4.66 5.64 5 7 C9.455 7.99 9.455 7.99 14 9 C13.67 9.66 13.34 10.32 13 11 C10.69 11 8.38 11 6 11 C6.165 11.639375 6.33 12.27875 6.5 12.9375 C7.15932515 16.97586652 7.08003779 20.91807258 7 25 C8.65 25 10.3 25 12 25 C12 25.99 12 26.98 12 28 C10.02090602 28.02686553 8.04171029 28.04633375 6.0625 28.0625 C4.96035156 28.07410156 3.85820312 28.08570313 2.72265625 28.09765625 C0 28 0 28 -1 27 C-1.09971786 25.08541718 -1.13080589 23.16717683 -1.1328125 21.25 C-1.13410156 20.0846875 -1.13539063 18.919375 -1.13671875 17.71875 C-1.13285156 16.4915625 -1.12898437 15.264375 -1.125 14 C-1.12886719 12.7728125 -1.13273438 11.545625 -1.13671875 10.28125 C-1.13542969 9.1159375 -1.13414062 7.950625 -1.1328125 6.75 C-1.13168457 5.67234375 -1.13055664 4.5946875 -1.12939453 3.484375 C-1 1 -1 1 0 0 Z " fill="#F9FEFB" transform="translate(211,106)"/>
<path d="M0 0 C2.296875 0.44921875 2.296875 0.44921875 5 2 C6.51534388 4.79999131 7.35821565 7.76557015 8.25 10.8125 C8.50523438 11.62009766 8.76046875 12.42769531 9.0234375 13.25976562 C10.23141481 17.14118744 11.31615489 20.98648048 12 25 C11.01 25 10.02 25 9 25 C6 19.375 6 19.375 6 16 C5.01 16 4.02 16 3 16 C2.93941406 16.69867188 2.87882812 17.39734375 2.81640625 18.1171875 C2.69072266 19.48230469 2.69072266 19.48230469 2.5625 20.875 C2.48128906 21.77992188 2.40007813 22.68484375 2.31640625 23.6171875 C2 26 2 26 1 28 C-0.32 28 -1.64 28 -3 28 C-3.27360056 18.84958133 -2.78154891 9.9987726 -1 1 C-0.67 0.67 -0.34 0.34 0 0 Z " fill="#F8FDF9" transform="translate(36,109)"/>
<path d="M0 0 C3.5625 0.375 3.5625 0.375 5.5625 2.1875 C6.5625 4.375 6.5625 4.375 5.5625 7.375 C3.5625 6.375 3.5625 6.375 2.5625 3.375 C1.5725 3.375 0.5825 3.375 -0.4375 3.375 C0.01689453 4.19907349 0.01689453 4.19907349 0.48046875 5.03979492 C1.8520285 7.54157267 3.20734522 10.05180107 4.5625 12.5625 C5.27792969 13.85897461 5.27792969 13.85897461 6.0078125 15.18164062 C6.45898438 16.02275391 6.91015625 16.86386719 7.375 17.73046875 C7.79394531 18.50028076 8.21289062 19.27009277 8.64453125 20.06323242 C9.67460918 22.65733027 9.73364843 24.60881349 9.5625 27.375 C6.88113541 29.19832792 5.36545881 29.375 2.0625 29.375 C-1.4375 28.375 -1.4375 28.375 -3.875 25.5 C-5.4375 22.375 -5.4375 22.375 -5.4375 19.375 C-4.4475 19.375 -3.4575 19.375 -2.4375 19.375 C-1.98375 20.344375 -1.53 21.31375 -1.0625 22.3125 C0.22036221 25.44579582 0.22036221 25.44579582 2.5625 26.375 C1.89600486 20.15124965 -0.8254352 15.81894973 -3.94140625 10.49609375 C-5.42869971 7.39335882 -5.9529376 5.74608042 -5.4375 2.375 C-3.4375 0.375 -3.4375 0.375 0 0 Z " fill="#F7FEF9" transform="translate(58.4375,105.625)"/>
<path d="M0 0 C3.5817034 3.09768943 4.66421709 6.16767638 5.0390625 10.87109375 C4.9714685 14.55496661 4.20479068 17.50610702 3 21 C-0.49124017 23.32749345 -1.89222251 23.50299316 -6 23 C-8.30275556 21.1329009 -9.67823871 19.64352259 -11 17 C-11.58450485 11.34700312 -12.04910419 6.60451229 -8.875 1.75 C-5.47283747 -0.32088154 -3.90290488 -0.83040529 0 0 Z M-3 4 C-5.14464422 7.51721652 -6.00695314 9.58281173 -5.9375 13.75 C-5.3463701 17.08023927 -5.3463701 17.08023927 -2.9375 18.4375 C-2.298125 18.623125 -1.65875 18.80875 -1 19 C1.69949646 15.17571334 2.49729798 12.67460102 2 8 C1.10168984 5.69769234 1.10168984 5.69769234 0 4 C-0.99 4 -1.98 4 -3 4 Z " fill="#F8FEFA" transform="translate(173,110)"/>
<path d="M0 0 C3.3 0 6.6 0 10 0 C10 3.3 10 6.6 10 10 C6.7 10 3.4 10 0 10 C0 6.7 0 3.4 0 0 Z " fill="#F8FEFA" transform="translate(80,59)"/>
<path d="M0 0 C3.3 0 6.6 0 10 0 C10 3.3 10 6.6 10 10 C6.7 10 3.4 10 0 10 C0 6.7 0 3.4 0 0 Z " fill="#F7FEF9" transform="translate(80,47)"/>
<path d="M0 0 C3.46679688 0.04882812 3.46679688 0.04882812 6.93359375 0.09765625 C6.93359375 3.39765625 6.93359375 6.69765625 6.93359375 10.09765625 C3.96359375 10.09765625 0.99359375 10.09765625 -2.06640625 10.09765625 C-2.9453125 3.1640625 -2.9453125 3.1640625 -3.06640625 1.09765625 C-2.06640625 0.09765625 -2.06640625 0.09765625 0 0 Z " fill="#F9FEFB" transform="translate(72.06640625,46.90234375)"/>
<path d="M0 0 C2.97 0 5.94 0 9 0 C9 3.3 9 6.6 9 10 C6.03 10 3.06 10 0 10 C0 6.7 0 3.4 0 0 Z " fill="#F9FEFC" transform="translate(70,59)"/>
<path d="M0 0 C2.64 0 5.28 0 8 0 C8 2.64 8 5.28 8 8 C5.36 8 2.72 8 0 8 C0 5.36 0 2.72 0 0 Z " fill="#F6FEFA" transform="translate(204,65)"/>
<path d="M0 0 C2.64 0 5.28 0 8 0 C8 2.64 8 5.28 8 8 C5.36 8 2.72 8 0 8 C0 5.36 0 2.72 0 0 Z " fill="#F9FEFB" transform="translate(195,65)"/>
<path d="M0 0 C2.64 0 5.28 0 8 0 C8 2.64 8 5.28 8 8 C5.36 8 2.72 8 0 8 C0 5.36 0 2.72 0 0 Z " fill="#F7FEFA" transform="translate(204,55)"/>
<path d="M0 0 C2.64 0 5.28 0 8 0 C8 2.64 8 5.28 8 8 C5.36 8 2.72 8 0 8 C0 5.36 0 2.72 0 0 Z " fill="#F9FEFB" transform="translate(195,55)"/>
</svg>